<svg width="792" height="156" viewBox="0 0 792 156" fill="none" xmlns="http://www.w3.org/2000/svg">
<g filter="url(#filter0_d_3_29)">
<circle cx="72" cy="78" r="68" fill="black"/>
<path d="M56.4779 78H43.1313L63.4676 19.0909H79.518L99.8256 78H86.479L71.7229 32.5526H71.2627L56.4779 78ZM55.6437 54.8448H87.1693V64.5671H55.6437V54.8448Z" fill="white"/>
<path d="M86.5221 78L99.8687 78L79.5324 136.909L63.482 136.909L43.1745 78L56.521 78L71.2771 123.447L71.7373 123.447L86.5221 78ZM87.3563 101.155L55.8307 101.155L55.8307 91.4329L87.3563 91.4329L87.3563 101.155Z" fill="white"/>
<circle cx="72" cy="78" r="64" stroke="white" stroke-width="2"/>
</g>
<g filter="url(#filter1_d_3_29)">
<path d="M179.882 116.03C176.402 116.03 173.3 115.426 170.578 114.219C167.855 112.988 165.701 111.177 164.115 108.786C162.552 106.371 161.771 103.364 161.771 99.7656C161.771 96.7353 162.327 94.1903 163.44 92.1307C164.553 90.071 166.068 88.4138 167.986 87.1591C169.903 85.9044 172.081 84.9574 174.52 84.3182C176.982 83.679 179.562 83.2292 182.261 82.9688C185.434 82.6373 187.99 82.3295 189.932 82.0455C191.873 81.7377 193.282 81.2879 194.157 80.696C195.033 80.1042 195.471 79.2282 195.471 78.0682V77.8551C195.471 75.6061 194.761 73.866 193.341 72.6349C191.944 71.4039 189.955 70.7884 187.375 70.7884C184.652 70.7884 182.486 71.392 180.876 72.5994C179.266 73.7831 178.201 75.2746 177.68 77.0739L163.689 75.9375C164.399 72.6231 165.796 69.7585 167.879 67.3438C169.962 64.9053 172.649 63.035 175.94 61.733C179.255 60.4072 183.09 59.7443 187.446 59.7443C190.476 59.7443 193.376 60.0994 196.146 60.8097C198.94 61.5199 201.414 62.6207 203.568 64.1122C205.746 65.6037 207.462 67.5213 208.717 69.8651C209.972 72.1851 210.599 74.9669 210.599 78.2102V115H196.253V107.436H195.827C194.951 109.141 193.779 110.644 192.311 111.946C190.843 113.224 189.079 114.231 187.02 114.964C184.96 115.675 182.581 116.03 179.882 116.03ZM184.214 105.589C186.44 105.589 188.405 105.152 190.109 104.276C191.814 103.376 193.151 102.169 194.122 100.653C195.093 99.1383 195.578 97.4219 195.578 95.5043V89.7159C195.104 90.0237 194.453 90.3078 193.625 90.5682C192.82 90.8049 191.908 91.0298 190.89 91.2429C189.872 91.4323 188.854 91.6098 187.836 91.7756C186.818 91.9176 185.895 92.0478 185.067 92.1662C183.291 92.4266 181.74 92.8409 180.415 93.4091C179.089 93.9773 178.059 94.7467 177.325 95.7173C176.591 96.6643 176.224 97.848 176.224 99.2685C176.224 101.328 176.97 102.902 178.461 103.991C179.977 105.057 181.894 105.589 184.214 105.589ZM242.435 115.888C238.292 115.888 234.54 114.822 231.178 112.692C227.84 110.537 225.189 107.377 223.224 103.21C221.282 99.0199 220.312 93.8826 220.312 87.7983C220.312 81.5483 221.318 76.3518 223.33 72.2088C225.342 68.0421 228.018 64.929 231.356 62.8693C234.717 60.786 238.399 59.7443 242.4 59.7443C245.454 59.7443 247.999 60.2652 250.035 61.3068C252.094 62.3248 253.751 63.6032 255.006 65.142C256.285 66.6572 257.255 68.1487 257.918 69.6165H258.38V42.2727H273.472V115H258.557V106.264H257.918C257.208 107.779 256.202 109.283 254.9 110.774C253.621 112.242 251.952 113.461 249.893 114.432C247.857 115.402 245.371 115.888 242.435 115.888ZM247.229 103.849C249.668 103.849 251.727 103.187 253.408 101.861C255.113 100.511 256.415 98.6293 257.314 96.2145C258.238 93.7997 258.699 90.9706 258.699 87.7273C258.699 84.4839 258.25 81.6667 257.35 79.2756C256.45 76.8845 255.148 75.0379 253.444 73.7358C251.739 72.4337 249.668 71.7827 247.229 71.7827C244.743 71.7827 242.648 72.4574 240.944 73.8068C239.239 75.1562 237.949 77.0265 237.073 79.4176C236.197 81.8087 235.759 84.5786 235.759 87.7273C235.759 90.8996 236.197 93.705 237.073 96.1435C237.973 98.5582 239.263 100.452 240.944 101.825C242.648 103.175 244.743 103.849 247.229 103.849ZM333.781 115V60.4545H348.199V70.0781H348.838C349.974 66.8821 351.868 64.3608 354.52 62.5142C357.171 60.6676 360.344 59.7443 364.037 59.7443C367.777 59.7443 370.961 60.6795 373.589 62.5497C376.217 64.3963 377.969 66.9058 378.845 70.0781H379.413C380.526 66.9531 382.538 64.4555 385.45 62.5852C388.386 60.6913 391.854 59.7443 395.855 59.7443C400.945 59.7443 405.076 61.366 408.248 64.6094C411.444 67.8291 413.042 72.3982 413.042 78.3168V115H397.95V81.2997C397.95 78.2694 397.145 75.9967 395.535 74.4815C393.925 72.9664 391.913 72.2088 389.498 72.2088C386.752 72.2088 384.61 73.0848 383.071 74.8366C381.532 76.5649 380.763 78.8494 380.763 81.6903V115H366.096V80.9801C366.096 78.3049 365.327 76.1742 363.788 74.5881C362.273 73.0019 360.273 72.2088 357.787 72.2088C356.106 72.2088 354.591 72.6349 353.241 73.4872C351.916 74.3158 350.862 75.4877 350.081 77.0028C349.3 78.4943 348.909 80.2462 348.909 82.2585V115H333.781ZM440.546 116.03C437.066 116.03 433.965 115.426 431.242 114.219C428.519 112.988 426.365 111.177 424.779 108.786C423.216 106.371 422.435 103.364 422.435 99.7656C422.435 96.7353 422.992 94.1903 424.104 92.1307C425.217 90.071 426.732 88.4138 428.65 87.1591C430.567 85.9044 432.745 84.9574 435.184 84.3182C437.646 83.679 440.226 83.2292 442.925 82.9688C446.098 82.6373 448.654 82.3295 450.596 82.0455C452.537 81.7377 453.946 81.2879 454.822 80.696C455.698 80.1042 456.135 79.2282 456.135 78.0682V77.8551C456.135 75.6061 455.425 73.866 454.005 72.6349C452.608 71.4039 450.619 70.7884 448.039 70.7884C445.316 70.7884 443.15 71.392 441.54 72.5994C439.93 73.7831 438.865 75.2746 438.344 77.0739L424.353 75.9375C425.063 72.6231 426.46 69.7585 428.543 67.3438C430.626 64.9053 433.314 63.035 436.604 61.733C439.919 60.4072 443.754 59.7443 448.11 59.7443C451.14 59.7443 454.04 60.0994 456.81 60.8097C459.604 61.5199 462.078 62.6207 464.232 64.1122C466.41 65.6037 468.126 67.5213 469.381 69.8651C470.636 72.1851 471.263 74.9669 471.263 78.2102V115H456.917V107.436H456.491C455.615 109.141 454.443 110.644 452.975 111.946C451.507 113.224 449.743 114.231 447.684 114.964C445.624 115.675 443.245 116.03 440.546 116.03ZM444.878 105.589C447.104 105.589 449.069 105.152 450.773 104.276C452.478 103.376 453.815 102.169 454.786 100.653C455.757 99.1383 456.242 97.4219 456.242 95.5043V89.7159C455.769 90.0237 455.117 90.3078 454.289 90.5682C453.484 90.8049 452.573 91.0298 451.555 91.2429C450.537 91.4323 449.519 91.6098 448.501 91.7756C447.483 91.9176 446.559 92.0478 445.731 92.1662C443.955 92.4266 442.404 92.8409 441.079 93.4091C439.753 93.9773 438.723 94.7467 437.989 95.7173C437.255 96.6643 436.888 97.848 436.888 99.2685C436.888 101.328 437.634 102.902 439.126 103.991C440.641 105.057 442.558 105.589 444.878 105.589ZM483 115V60.4545H497.666V69.9716H498.234C499.229 66.5862 500.898 64.0294 503.241 62.3011C505.585 60.5492 508.284 59.6733 511.338 59.6733C512.095 59.6733 512.912 59.7206 513.788 59.8153C514.664 59.91 515.434 60.0402 516.096 60.206V73.6293C515.386 73.4162 514.404 73.2268 513.149 73.0611C511.894 72.8954 510.746 72.8125 509.704 72.8125C507.479 72.8125 505.49 73.2978 503.738 74.2685C502.01 75.2154 500.637 76.5412 499.619 78.2457C498.625 79.9503 498.128 81.9152 498.128 84.1406V115H483ZM537.625 99.304L537.661 81.1577H539.862L557.334 60.4545H574.699L551.226 87.8693H547.639L537.625 99.304ZM523.918 115V42.2727H539.046V115H523.918ZM558.009 115L541.958 91.2429L552.043 80.554L575.729 115H558.009ZM604.733 116.065C599.122 116.065 594.292 114.929 590.244 112.656C586.22 110.36 583.118 107.116 580.94 102.926C578.762 98.7121 577.673 93.7287 577.673 87.9759C577.673 82.3651 578.762 77.4408 580.94 73.2031C583.118 68.9654 586.184 65.6629 590.138 63.2955C594.115 60.928 598.779 59.7443 604.129 59.7443C607.728 59.7443 611.077 60.3243 614.179 61.4844C617.304 62.6207 620.026 64.3371 622.346 66.6335C624.69 68.9299 626.513 71.8182 627.815 75.2983C629.117 78.7547 629.768 82.803 629.768 87.4432V91.598H583.71V82.223H615.528C615.528 80.045 615.055 78.1155 614.108 76.4347C613.161 74.7538 611.847 73.4399 610.166 72.4929C608.509 71.5223 606.579 71.0369 604.378 71.0369C602.081 71.0369 600.045 71.5696 598.27 72.6349C596.518 73.6766 595.145 75.0852 594.15 76.8608C593.156 78.6127 592.647 80.5658 592.623 82.7202V91.6335C592.623 94.3324 593.121 96.6643 594.115 98.6293C595.133 100.594 596.565 102.109 598.412 103.175C600.258 104.24 602.448 104.773 604.981 104.773C606.662 104.773 608.201 104.536 609.598 104.062C610.995 103.589 612.19 102.879 613.184 101.932C614.179 100.985 614.936 99.8248 615.457 98.4517L629.449 99.375C628.738 102.737 627.282 105.672 625.081 108.182C622.903 110.668 620.086 112.609 616.629 114.006C613.196 115.379 609.231 116.065 604.733 116.065ZM668.653 60.4545V71.8182H635.805V60.4545H668.653ZM643.263 47.3864H658.39V98.2386C658.39 99.6354 658.604 100.724 659.03 101.506C659.456 102.263 660.048 102.796 660.805 103.104C661.586 103.411 662.486 103.565 663.504 103.565C664.214 103.565 664.925 103.506 665.635 103.388C666.345 103.246 666.89 103.139 667.268 103.068L669.648 114.325C668.89 114.562 667.825 114.834 666.452 115.142C665.078 115.473 663.409 115.675 661.444 115.746C657.799 115.888 654.603 115.402 651.856 114.29C649.134 113.177 647.015 111.449 645.5 109.105C643.985 106.761 643.239 103.802 643.263 100.227V47.3864ZM687.35 115.923C685.006 115.923 682.994 115.095 681.313 113.438C679.656 111.757 678.827 109.744 678.827 107.401C678.827 105.08 679.656 103.092 681.313 101.435C682.994 99.7775 685.006 98.9489 687.35 98.9489C689.623 98.9489 691.611 99.7775 693.316 101.435C695.02 103.092 695.873 105.08 695.873 107.401C695.873 108.963 695.47 110.395 694.665 111.697C693.884 112.976 692.854 114.006 691.576 114.787C690.297 115.545 688.889 115.923 687.35 115.923ZM708.293 115V60.4545H723.421V115H708.293ZM715.892 53.4233C713.643 53.4233 711.714 52.6776 710.104 51.1861C708.518 49.6709 707.725 47.8598 707.725 45.7528C707.725 43.6695 708.518 41.8821 710.104 40.3906C711.714 38.8755 713.643 38.1179 715.892 38.1179C718.141 38.1179 720.059 38.8755 721.645 40.3906C723.255 41.8821 724.06 43.6695 724.06 45.7528C724.06 47.8598 723.255 49.6709 721.645 51.1861C720.059 52.6776 718.141 53.4233 715.892 53.4233ZM750.667 83.4659V115H735.539V60.4545H749.956V70.0781H750.596C751.803 66.9058 753.827 64.3963 756.668 62.5497C759.509 60.6795 762.954 59.7443 767.002 59.7443C770.79 59.7443 774.092 60.5729 776.91 62.2301C779.727 63.8873 781.917 66.2547 783.479 69.3324C785.042 72.3864 785.823 76.0322 785.823 80.2699V115H770.695V82.9688C770.719 79.6307 769.867 77.0265 768.138 75.1562C766.41 73.2623 764.031 72.3153 761.001 72.3153C758.965 72.3153 757.165 72.7533 755.603 73.6293C754.064 74.5052 752.857 75.7836 751.981 77.4645C751.128 79.1217 750.69 81.1222 750.667 83.4659Z" fill="black"/>
<path d="M284.353 115V106.58L304.028 88.3622C305.701 86.7429 307.105 85.2855 308.238 83.9901C309.39 82.6946 310.262 81.4261 310.856 80.1847C311.45 78.9252 311.747 77.5668 311.747 76.1094C311.747 74.4901 311.378 73.0956 310.64 71.9261C309.902 70.7386 308.895 69.83 307.617 69.2003C306.34 68.5526 304.892 68.2287 303.272 68.2287C301.581 68.2287 300.106 68.5705 298.846 69.2543C297.587 69.938 296.615 70.9186 295.931 72.196C295.248 73.4735 294.906 74.9938 294.906 76.7571H283.813C283.813 73.1406 284.632 70.0009 286.269 67.3381C287.907 64.6752 290.201 62.6151 293.151 61.1577C296.102 59.7003 299.503 58.9716 303.353 58.9716C307.311 58.9716 310.757 59.6733 313.69 61.0767C316.641 62.4621 318.935 64.3873 320.572 66.8523C322.209 69.3172 323.028 72.142 323.028 75.3267C323.028 77.4138 322.614 79.474 321.786 81.5071C320.977 83.5402 319.528 85.7983 317.441 88.2812C315.354 90.7462 312.412 93.706 308.616 97.1605L300.546 105.068V105.446H323.757V115H284.353Z" fill="#00FF0A"/>
</g>
<defs>
<filter id="filter0_d_3_29" x="0" y="10" width="144" height="144" filterUnits="userSpaceOnUse" color-interpolation-filters="sRGB">
<feFlood flood-opacity="0" result="BackgroundImageFix"/>
<feColorMatrix in="SourceAlpha" type="matrix" values="0 0 0 0 0 0 0 0 0 0 0 0 0 0 0 0 0 0 127 0" result="hardAlpha"/>
<feOffset dy="4"/>
<feGaussianBlur stdDeviation="2"/>
<feComposite in2="hardAlpha" operator="out"/>
<feColorMatrix type="matrix" values="0 0 0 0 0 0 0 0 0 0 0 0 0 0 0 0 0 0 0.25 0"/>
<feBlend mode="normal" in2="BackgroundImageFix" result="effect1_dropShadow_3_29"/>
<feBlend mode="normal" in="SourceGraphic" in2="effect1_dropShadow_3_29" result="shape"/>
</filter>
<filter id="filter1_d_3_29" x="157.771" y="38.1179" width="632.052" height="85.9474" filterUnits="userSpaceOnUse" color-interpolation-filters="sRGB">
<feFlood flood-opacity="0" result="BackgroundImageFix"/>
<feColorMatrix in="SourceAlpha" type="matrix" values="0 0 0 0 0 0 0 0 0 0 0 0 0 0 0 0 0 0 127 0" result="hardAlpha"/>
<feOffset dy="4"/>
<feGaussianBlur stdDeviation="2"/>
<feComposite in2="hardAlpha" operator="out"/>
<feColorMatrix type="matrix" values="0 0 0 0 0 0 0 0 0 0 0 0 0 0 0 0 0 0 0.25 0"/>
<feBlend mode="normal" in2="BackgroundImageFix" result="effect1_dropShadow_3_29"/>
<feBlend mode="normal" in="SourceGraphic" in2="effect1_dropShadow_3_29" result="shape"/>
</filter>
</defs>
</svg>
