<svg width="677" height="156" viewBox="0 0 677 156" fill="none" xmlns="http://www.w3.org/2000/svg">
<g filter="url(#filter0_d_3_29)">
<circle cx="72" cy="78" r="68" fill="black"/>
<path d="M56.4779 78H43.1313L63.4676 19.0909H79.518L99.8256 78H86.479L71.7229 32.5526H71.2627L56.4779 78ZM55.6437 54.8448H87.1693V64.5671H55.6437V54.8448Z" fill="white"/>
<path d="M86.5221 78L99.8687 78L79.5324 136.909L63.482 136.909L43.1745 78L56.521 78L71.2771 123.447L71.7373 123.447L86.5221 78ZM87.3563 101.155L55.8307 101.155L55.8307 91.4329L87.3563 91.4329L87.3563 101.155Z" fill="white"/>
<circle cx="72" cy="78" r="64" stroke="white" stroke-width="2"/>
</g>
<g filter="url(#filter1_d_3_29)">
<path d="M183.001 116.03C179.521 116.03 176.42 115.426 173.697 114.219C170.975 112.988 168.82 111.177 167.234 108.786C165.672 106.371 164.89 103.364 164.89 99.7656C164.89 96.7353 165.447 94.1903 166.559 92.1307C167.672 90.071 169.187 88.4138 171.105 87.1591C173.022 85.9044 175.2 84.9574 177.639 84.3182C180.101 83.679 182.681 83.2292 185.38 82.9688C188.553 82.6373 191.109 82.3295 193.051 82.0455C194.992 81.7377 196.401 81.2879 197.277 80.696C198.153 80.1042 198.591 79.2282 198.591 78.0682V77.8551C198.591 75.6061 197.88 73.866 196.46 72.6349C195.063 71.4039 193.074 70.7884 190.494 70.7884C187.771 70.7884 185.605 71.392 183.995 72.5994C182.386 73.7831 181.32 75.2746 180.799 77.0739L166.808 75.9375C167.518 72.6231 168.915 69.7585 170.998 67.3438C173.082 64.9053 175.769 63.035 179.059 61.733C182.374 60.4072 186.209 59.7443 190.565 59.7443C193.595 59.7443 196.495 60.0994 199.265 60.8097C202.059 61.5199 204.533 62.6207 206.687 64.1122C208.865 65.6037 210.582 67.5213 211.836 69.8651C213.091 72.1851 213.718 74.9669 213.718 78.2102V115H199.372V107.436H198.946C198.07 109.141 196.898 110.644 195.43 111.946C193.962 113.224 192.199 114.231 190.139 114.964C188.079 115.675 185.7 116.03 183.001 116.03ZM187.333 105.589C189.559 105.589 191.524 105.152 193.228 104.276C194.933 103.376 196.27 102.169 197.241 100.653C198.212 99.1383 198.697 97.4219 198.697 95.5043V89.7159C198.224 90.0237 197.573 90.3078 196.744 90.5682C195.939 90.8049 195.028 91.0298 194.01 91.2429C192.992 91.4323 191.974 91.6098 190.956 91.7756C189.938 91.9176 189.014 92.0478 188.186 92.1662C186.41 92.4266 184.859 92.8409 183.534 93.4091C182.208 93.9773 181.178 94.7467 180.444 95.7173C179.71 96.6643 179.343 97.848 179.343 99.2685C179.343 101.328 180.089 102.902 181.581 103.991C183.096 105.057 185.013 105.589 187.333 105.589ZM245.554 115.888C241.411 115.888 237.659 114.822 234.297 112.692C230.959 110.537 228.308 107.377 226.343 103.21C224.401 99.0199 223.431 93.8826 223.431 87.7983C223.431 81.5483 224.437 76.3518 226.449 72.2088C228.462 68.0421 231.137 64.929 234.475 62.8693C237.837 60.786 241.518 59.7443 245.519 59.7443C248.573 59.7443 251.118 60.2652 253.154 61.3068C255.213 62.3248 256.871 63.6032 258.125 65.142C259.404 66.6572 260.374 68.1487 261.037 69.6165H261.499V42.2727H276.591V115H261.676V106.264H261.037C260.327 107.779 259.321 109.283 258.019 110.774C256.74 112.242 255.071 113.461 253.012 114.432C250.976 115.402 248.49 115.888 245.554 115.888ZM250.348 103.849C252.787 103.849 254.846 103.187 256.527 101.861C258.232 100.511 259.534 98.6293 260.434 96.2145C261.357 93.7997 261.819 90.9706 261.819 87.7273C261.819 84.4839 261.369 81.6667 260.469 79.2756C259.569 76.8845 258.267 75.0379 256.563 73.7358C254.858 72.4337 252.787 71.7827 250.348 71.7827C247.863 71.7827 245.767 72.4574 244.063 73.8068C242.358 75.1562 241.068 77.0265 240.192 79.4176C239.316 81.8087 238.878 84.5786 238.878 87.7273C238.878 90.8996 239.316 93.705 240.192 96.1435C241.092 98.5582 242.382 100.452 244.063 101.825C245.767 103.175 247.863 103.849 250.348 103.849ZM336.9 115V60.4545H351.318V70.0781H351.957C353.093 66.8821 354.987 64.3608 357.639 62.5142C360.29 60.6676 363.463 59.7443 367.156 59.7443C370.896 59.7443 374.081 60.6795 376.708 62.5497C379.336 64.3963 381.088 66.9058 381.964 70.0781H382.532C383.645 66.9531 385.657 64.4555 388.569 62.5852C391.505 60.6913 394.973 59.7443 398.974 59.7443C404.064 59.7443 408.195 61.366 411.368 64.6094C414.564 67.8291 416.162 72.3982 416.162 78.3168V115H401.069V81.2997C401.069 78.2694 400.264 75.9967 398.654 74.4815C397.045 72.9664 395.032 72.2088 392.618 72.2088C389.871 72.2088 387.729 73.0848 386.19 74.8366C384.651 76.5649 383.882 78.8494 383.882 81.6903V115H369.216V80.9801C369.216 78.3049 368.446 76.1742 366.907 74.5881C365.392 73.0019 363.392 72.2088 360.906 72.2088C359.225 72.2088 357.71 72.6349 356.36 73.4872C355.035 74.3158 353.981 75.4877 353.2 77.0028C352.419 78.4943 352.028 80.2462 352.028 82.2585V115H336.9ZM443.665 116.03C440.185 116.03 437.084 115.426 434.361 114.219C431.639 112.988 429.484 111.177 427.898 108.786C426.336 106.371 425.554 103.364 425.554 99.7656C425.554 96.7353 426.111 94.1903 427.223 92.1307C428.336 90.071 429.851 88.4138 431.769 87.1591C433.686 85.9044 435.864 84.9574 438.303 84.3182C440.765 83.679 443.346 83.2292 446.044 82.9688C449.217 82.6373 451.774 82.3295 453.715 82.0455C455.656 81.7377 457.065 81.2879 457.941 80.696C458.817 80.1042 459.255 79.2282 459.255 78.0682V77.8551C459.255 75.6061 458.544 73.866 457.124 72.6349C455.727 71.4039 453.739 70.7884 451.158 70.7884C448.435 70.7884 446.269 71.392 444.659 72.5994C443.05 73.7831 441.984 75.2746 441.463 77.0739L427.472 75.9375C428.182 72.6231 429.579 69.7585 431.662 67.3438C433.746 64.9053 436.433 63.035 439.723 61.733C443.038 60.4072 446.873 59.7443 451.229 59.7443C454.259 59.7443 457.159 60.0994 459.929 60.8097C462.723 61.5199 465.197 62.6207 467.351 64.1122C469.529 65.6037 471.246 67.5213 472.5 69.8651C473.755 72.1851 474.382 74.9669 474.382 78.2102V115H460.036V107.436H459.61C458.734 109.141 457.562 110.644 456.094 111.946C454.626 113.224 452.863 114.231 450.803 114.964C448.743 115.675 446.364 116.03 443.665 116.03ZM447.998 105.589C450.223 105.589 452.188 105.152 453.892 104.276C455.597 103.376 456.935 102.169 457.905 100.653C458.876 99.1383 459.361 97.4219 459.361 95.5043V89.7159C458.888 90.0237 458.237 90.3078 457.408 90.5682C456.603 90.8049 455.692 91.0298 454.674 91.2429C453.656 91.4323 452.638 91.6098 451.62 91.7756C450.602 91.9176 449.678 92.0478 448.85 92.1662C447.074 92.4266 445.524 92.8409 444.198 93.4091C442.872 93.9773 441.842 94.7467 441.108 95.7173C440.374 96.6643 440.007 97.848 440.007 99.2685C440.007 101.328 440.753 102.902 442.245 103.991C443.76 105.057 445.677 105.589 447.998 105.589ZM486.119 115V60.4545H500.785V69.9716H501.353C502.348 66.5862 504.017 64.0294 506.36 62.3011C508.704 60.5492 511.403 59.6733 514.457 59.6733C515.215 59.6733 516.031 59.7206 516.907 59.8153C517.783 59.91 518.553 60.0402 519.216 60.206V73.6293C518.505 73.4162 517.523 73.2268 516.268 73.0611C515.013 72.8954 513.865 72.8125 512.824 72.8125C510.598 72.8125 508.609 73.2978 506.858 74.2685C505.129 75.2154 503.756 76.5412 502.738 78.2457C501.744 79.9503 501.247 81.9152 501.247 84.1406V115H486.119ZM540.744 99.304L540.78 81.1577H542.982L560.453 60.4545H577.818L554.345 87.8693H550.759L540.744 99.304ZM527.037 115V42.2727H542.165V115H527.037ZM561.128 115L545.077 91.2429L555.162 80.554L578.848 115H561.128ZM607.852 116.065C602.241 116.065 597.412 114.929 593.363 112.656C589.339 110.36 586.237 107.116 584.059 102.926C581.881 98.7121 580.792 93.7287 580.792 87.9759C580.792 82.3651 581.881 77.4408 584.059 73.2031C586.237 68.9654 589.303 65.6629 593.257 63.2955C597.234 60.928 601.898 59.7443 607.248 59.7443C610.847 59.7443 614.197 60.3243 617.298 61.4844C620.423 62.6207 623.145 64.3371 625.466 66.6335C627.809 68.9299 629.632 71.8182 630.934 75.2983C632.236 78.7547 632.887 82.803 632.887 87.4432V91.598H586.829V82.223H618.647C618.647 80.045 618.174 78.1155 617.227 76.4347C616.28 74.7538 614.966 73.4399 613.285 72.4929C611.628 71.5223 609.699 71.0369 607.497 71.0369C605.2 71.0369 603.164 71.5696 601.389 72.6349C599.637 73.6766 598.264 75.0852 597.27 76.8608C596.275 78.6127 595.766 80.5658 595.743 82.7202V91.6335C595.743 94.3324 596.24 96.6643 597.234 98.6293C598.252 100.594 599.684 102.109 601.531 103.175C603.377 104.24 605.567 104.773 608.1 104.773C609.781 104.773 611.32 104.536 612.717 104.062C614.114 103.589 615.309 102.879 616.304 101.932C617.298 100.985 618.056 99.8248 618.576 98.4517L632.568 99.375C631.858 102.737 630.402 105.672 628.2 108.182C626.022 110.668 623.205 112.609 619.748 114.006C616.315 115.379 612.35 116.065 607.852 116.065ZM671.772 60.4545V71.8182H638.924V60.4545H671.772ZM646.382 47.3864H661.51V98.2386C661.51 99.6354 661.723 100.724 662.149 101.506C662.575 102.263 663.167 102.796 663.924 103.104C664.706 103.411 665.605 103.565 666.623 103.565C667.333 103.565 668.044 103.506 668.754 103.388C669.464 103.246 670.009 103.139 670.387 103.068L672.767 114.325C672.009 114.562 670.944 114.834 669.571 115.142C668.198 115.473 666.529 115.675 664.564 115.746C660.918 115.888 657.722 115.402 654.975 114.29C652.253 113.177 650.134 111.449 648.619 109.105C647.104 106.761 646.358 103.802 646.382 100.227V47.3864Z" fill="black"/>
<path d="M287.472 115V106.58L307.147 88.3622C308.82 86.7429 310.224 85.2855 311.357 83.9901C312.509 82.6946 313.381 81.4261 313.975 80.1847C314.569 78.9252 314.866 77.5668 314.866 76.1094C314.866 74.4901 314.497 73.0956 313.759 71.9261C313.022 70.7386 312.014 69.83 310.737 69.2003C309.459 68.5526 308.011 68.2287 306.391 68.2287C304.7 68.2287 303.225 68.5705 301.965 69.2543C300.706 69.938 299.734 70.9186 299.05 72.196C298.367 73.4735 298.025 74.9938 298.025 76.7571H286.933C286.933 73.1406 287.751 70.0009 289.388 67.3381C291.026 64.6752 293.32 62.6151 296.271 61.1577C299.221 59.7003 302.622 58.9716 306.472 58.9716C310.431 58.9716 313.876 59.6733 316.809 61.0767C319.76 62.4621 322.054 64.3873 323.691 66.8523C325.328 69.3172 326.147 72.142 326.147 75.3267C326.147 77.4138 325.733 79.474 324.906 81.5071C324.096 83.5402 322.647 85.7983 320.56 88.2812C318.473 90.7462 315.531 93.706 311.735 97.1605L303.665 105.068V105.446H326.876V115H287.472Z" fill="#00FF0A"/>
</g>
<defs>
<filter id="filter0_d_3_29" x="0" y="10" width="144" height="144" filterUnits="userSpaceOnUse" color-interpolation-filters="sRGB">
<feFlood flood-opacity="0" result="BackgroundImageFix"/>
<feColorMatrix in="SourceAlpha" type="matrix" values="0 0 0 0 0 0 0 0 0 0 0 0 0 0 0 0 0 0 127 0" result="hardAlpha"/>
<feOffset dy="4"/>
<feGaussianBlur stdDeviation="2"/>
<feComposite in2="hardAlpha" operator="out"/>
<feColorMatrix type="matrix" values="0 0 0 0 0 0 0 0 0 0 0 0 0 0 0 0 0 0 0.25 0"/>
<feBlend mode="normal" in2="BackgroundImageFix" result="effect1_dropShadow_3_29"/>
<feBlend mode="normal" in="SourceGraphic" in2="effect1_dropShadow_3_29" result="shape"/>
</filter>
<filter id="filter1_d_3_29" x="160.89" y="42.2727" width="515.876" height="81.7926" filterUnits="userSpaceOnUse" color-interpolation-filters="sRGB">
<feFlood flood-opacity="0" result="BackgroundImageFix"/>
<feColorMatrix in="SourceAlpha" type="matrix" values="0 0 0 0 0 0 0 0 0 0 0 0 0 0 0 0 0 0 127 0" result="hardAlpha"/>
<feOffset dy="4"/>
<feGaussianBlur stdDeviation="2"/>
<feComposite in2="hardAlpha" operator="out"/>
<feColorMatrix type="matrix" values="0 0 0 0 0 0 0 0 0 0 0 0 0 0 0 0 0 0 0.25 0"/>
<feBlend mode="normal" in2="BackgroundImageFix" result="effect1_dropShadow_3_29"/>
<feBlend mode="normal" in="SourceGraphic" in2="effect1_dropShadow_3_29" result="shape"/>
</filter>
</defs>
</svg>
